<svg xmlns="http://www.w3.org/2000/svg" width="89.712" height="28.019" viewBox="0 0 89.712 28.019">
  <path id="airbnb" d="M25.886,19.864c-.141-.341-.274-.7-.415-1.006L24.818,17.4l-.027-.026C22.85,13.17,20.777,8.9,18.58,4.7l-.088-.175c-.221-.411-.441-.866-.671-1.286A8.333,8.333,0,0,0,16.815,1.7a4.7,4.7,0,0,0-7.235,0,10.647,10.647,0,0,0-1.006,1.54c-.221.455-.441.9-.671,1.312l-.088.175C5.653,8.926,3.544,13.2,1.6,17.4l-.053.052c-.194.455-.424.927-.644,1.435-.141.306-.282.639-.424,1.006a5.91,5.91,0,0,0,.854,5.835,6.024,6.024,0,0,0,5.5,2.241A7.437,7.437,0,0,0,9.642,27a14.247,14.247,0,0,0,3.485-2.9,15.032,15.032,0,0,0,3.485,2.914,7.441,7.441,0,0,0,3.547,1.006A6.021,6.021,0,0,0,24.1,26.574a5.928,5.928,0,0,0,2.015-3.656,5.158,5.158,0,0,0-.229-3.062ZM13.215,21.316a13.913,13.913,0,0,1-2.841-5.206,4.512,4.512,0,0,1-.088-1.715,2.709,2.709,0,0,1,.459-1.173,3,3,0,0,1,2.471-1.234,2.919,2.919,0,0,1,2.471,1.225,2.712,2.712,0,0,1,.45,1.181,4.432,4.432,0,0,1-.088,1.715A14.271,14.271,0,0,1,13.215,21.316Zm11.241,1.3a4.146,4.146,0,0,1-.838,1.979,4.2,4.2,0,0,1-1.721,1.3,4.332,4.332,0,0,1-2.135.28,5.556,5.556,0,0,1-2.135-.735,13.769,13.769,0,0,1-3.2-2.712,15.89,15.89,0,0,0,3.4-6.195,6.805,6.805,0,0,0,.141-2.389,4.815,4.815,0,0,0-.759-1.925,4.741,4.741,0,0,0-3.962-1.995,4.834,4.834,0,0,0-3.971,1.986,4.51,4.51,0,0,0-.75,1.934,5.713,5.713,0,0,0,.141,2.389,16.234,16.234,0,0,0,3.4,6.212,12.617,12.617,0,0,1-3.2,2.73,5.583,5.583,0,0,1-2.135.726,4.226,4.226,0,0,1-3.086-.823,4.158,4.158,0,0,1-1.609-2.738,4.576,4.576,0,0,1,.256-2.187c.088-.28.221-.56.362-.892.194-.455.424-.928.644-1.4l.035-.061C5.23,13.922,7.312,9.661,9.474,5.488l.088-.175c.221-.42.441-.866.671-1.286A5.644,5.644,0,0,1,11.027,2.8a2.944,2.944,0,0,1,4.491,0,5.991,5.991,0,0,1,.794,1.225c.221.42.441.875.671,1.286l.088.175c2.153,4.174,4.235,8.435,6.176,12.609l.026.026c.229.455.424.962.644,1.4.141.341.282.613.371.9A6.5,6.5,0,0,1,24.456,22.611Zm12.282-1.487a4.445,4.445,0,0,1-3.485-1.6,5.7,5.7,0,0,1-1.412-3.92A6.06,6.06,0,0,1,33.306,11.6a4.693,4.693,0,0,1,3.6-1.628,3.82,3.82,0,0,1,1.851.422,3.782,3.782,0,0,1,1.413,1.259l.088-1.374h2.576v10.57H40.25l-.088-1.54a3.976,3.976,0,0,1-1.473,1.351A4.016,4.016,0,0,1,36.739,21.124Zm.671-2.52a2.628,2.628,0,0,0,1.385-.394,3.292,3.292,0,0,0,.953-1.094,3.543,3.543,0,0,0,.335-1.575,2.984,2.984,0,0,0-1.3-2.66,2.621,2.621,0,0,0-2.753,0,3.292,3.292,0,0,0-.953,1.094,3.483,3.483,0,0,0-.335,1.575,2.984,2.984,0,0,0,1.3,2.66A2.567,2.567,0,0,0,37.409,18.6ZM47.247,7.421a1.526,1.526,0,0,1-.194.814,1.587,1.587,0,0,1-1.4.753A1.69,1.69,0,0,1,44.83,8.8a1.618,1.618,0,0,1-.591-.56,1.581,1.581,0,0,1-.194-.814,1.567,1.567,0,0,1,.194-.814,1.4,1.4,0,0,1,.591-.56,1.675,1.675,0,0,1,.821-.2,1.634,1.634,0,0,1,.806.191,1.617,1.617,0,0,1,.606.561A1.738,1.738,0,0,1,47.247,7.421Zm-3,13.388V10.256h2.806v10.57H44.239Zm10.306-7.788v.035a2.053,2.053,0,0,0-.441-.114,2.308,2.308,0,0,0-.485-.035,2.15,2.15,0,0,0-1.765.7,2.954,2.954,0,0,0-.618,2.021v5.189H48.43V10.248h2.585l.088,1.6a3.182,3.182,0,0,1,1.094-1.3,2.752,2.752,0,0,1,1.6-.437,2.816,2.816,0,0,1,.565.053,1.425,1.425,0,0,1,.194.052Zm1.129,7.788V5.916h2.806V11.6a4.359,4.359,0,0,1,6.776-.061,5.7,5.7,0,0,1,1.412,3.929,6.059,6.059,0,0,1-1.465,4.007,4.694,4.694,0,0,1-3.6,1.628,3.8,3.8,0,0,1-3.265-1.68L58.259,20.8l-2.576.026Zm5.426-2.2a2.62,2.62,0,0,0,1.376-.394,3.293,3.293,0,0,0,.953-1.094,3.427,3.427,0,0,0,.335-1.575,3.414,3.414,0,0,0-.335-1.566,3.29,3.29,0,0,0-.953-1.094,2.621,2.621,0,0,0-2.753,0,3.316,3.316,0,0,0-.962,1.094,3.482,3.482,0,0,0-.335,1.575,2.983,2.983,0,0,0,1.3,2.66A2.574,2.574,0,0,0,61.109,18.6Zm6.627,2.214V10.248h2.585l.088,1.374a3.482,3.482,0,0,1,1.335-1.248,3.517,3.517,0,0,1,1.789-.406,3.641,3.641,0,0,1,2.01.564A3.6,3.6,0,0,1,76.9,12.1a5.742,5.742,0,0,1,.477,2.406v6.335H74.565V14.876a2.748,2.748,0,0,0-.5-1.741,1.68,1.68,0,0,0-1.376-.648,2.152,2.152,0,0,0-1.121.28,2.192,2.192,0,0,0-.759.814,2.346,2.346,0,0,0-.282,1.181v6.055Zm11.047,0V5.907H81.6V11.6a4.132,4.132,0,0,1,3.291-1.654,4.444,4.444,0,0,1,3.485,1.6,5.719,5.719,0,0,1,1.4,3.92,6.05,6.05,0,0,1-1.465,4.007,4.693,4.693,0,0,1-3.6,1.628,3.8,3.8,0,0,1-3.265-1.68l-.079,1.374ZM84.236,18.6a2.574,2.574,0,0,0,1.376-.394,3.316,3.316,0,0,0,.962-1.094,3.542,3.542,0,0,0,.335-1.575,2.984,2.984,0,0,0-1.3-2.66,2.621,2.621,0,0,0-2.753,0,3.292,3.292,0,0,0-.953,1.094,3.156,3.156,0,0,0-.335,1.575,2.984,2.984,0,0,0,1.3,2.66A2.5,2.5,0,0,0,84.236,18.6Z" transform="translate(-0.067)" fill="#fff"/>
</svg>
