<svg xmlns="http://www.w3.org/2000/svg" width="79.902" height="24.127" viewBox="0 0 79.902 24.127">
  <g id="fedex" transform="translate(-0.031 -0.946)">
    <path id="Path_1" data-name="Path 1" d="M59.522,24.228l6.672-7.389-6.672-7.39h7.039l3.3,3.59,3.182-3.59h6.794l-6.64,7.36,6.731,7.42H72.865L69.59,20.609l-3.243,3.619Z" fill="#fff"/>
    <path id="Path_2" data-name="Path 2" d="M59.522,6.135H51.966V9.448h7.556v4.993H51.966v4.583h7.556v5.2H46.412V.946h13.11Z" fill="#fff"/>
    <path id="Path_3" data-name="Path 3" d="M40.882.946v9.528h-.061A5.642,5.642,0,0,0,36.292,8.6a7.621,7.621,0,0,0-7.336,5.657c-1.1-3.549-3.924-5.724-8.117-5.724a8.278,8.278,0,0,0-7.5,3.961V9.449H6.3V6.136h7.68V.946H.031V24.228H6.3V14.441h6.253a9.153,9.153,0,0,0-.286,2.3c0,4.857,3.764,8.264,8.567,8.264,4.039,0,6.7-1.869,8.109-5.277H23.573a2.712,2.712,0,0,1-2.733,1.328A3.206,3.206,0,0,1,17.7,17.889H28.648a7.919,7.919,0,0,0,7.706,7.184,5.38,5.38,0,0,0,4.467-2.352h.061v1.507h5.53V.946ZM17.875,14.511a3.016,3.016,0,0,1,2.965-2.445,2.869,2.869,0,0,1,2.994,2.445Zm19.651,6.172c-2.039,0-3.305-1.872-3.305-3.827,0-2.09,1.1-4.1,3.305-4.1,2.285,0,3.2,2.009,3.2,4.1C40.721,18.837,39.756,20.683,37.526,20.683Z" fill="#fff"/>
  </g>
</svg>
