<svg xmlns="http://www.w3.org/2000/svg" width="83.271" height="27.014" viewBox="0 0 83.271 27.014">
  <g id="google" transform="translate(-0.779 -0.502)">
    <path id="Path_1" data-name="Path 1" d="M36.415,14.719a6.717,6.717,0,0,1-6.871,6.75,6.752,6.752,0,1,1,0-13.5A6.7,6.7,0,0,1,36.415,14.719Zm-3.008,0a3.87,3.87,0,1,0-7.727,0,3.87,3.87,0,1,0,7.727,0Z" fill="#fff"/>
    <path id="Path_2" data-name="Path 2" d="M51.238,14.719a6.872,6.872,0,1,1-6.871-6.75A6.717,6.717,0,0,1,51.238,14.719Zm-3.008,0a3.87,3.87,0,1,0-7.727,0,3.87,3.87,0,1,0,7.727,0Z" fill="#fff"/>
    <path id="Path_3" data-name="Path 3" d="M65.444,8.376V20.5c0,4.985-2.983,7.021-6.51,7.021a6.52,6.52,0,0,1-6.071-3.978l2.619-1.074a3.779,3.779,0,0,0,3.45,2.4c2.257,0,3.657-1.373,3.657-3.957v-.971h-.1a4.694,4.694,0,0,1-3.607,1.534,6.752,6.752,0,0,1,0-13.5,4.779,4.779,0,0,1,3.607,1.51h.1v-1.1h2.857ZM62.8,14.743a3.824,3.824,0,0,0-3.657-4.115,3.928,3.928,0,0,0-3.814,4.115,3.9,3.9,0,0,0,3.814,4.066A3.794,3.794,0,0,0,62.8,14.743Z" fill="#fff"/>
    <path id="Path_4" data-name="Path 4" d="M70.154,1.272V21.055H67.22V1.272Z" fill="#fff"/>
    <path id="Path_5" data-name="Path 5" d="M81.586,16.94l2.335,1.534a6.839,6.839,0,0,1-5.707,2.992,6.653,6.653,0,0,1-6.8-6.75,6.458,6.458,0,0,1,6.461-6.75,6.345,6.345,0,0,1,5.861,4.294l.312.767-9.157,3.737a3.491,3.491,0,0,0,3.32,2.045A3.921,3.921,0,0,0,81.586,16.94ZM74.4,14.512l6.121-2.5a2.658,2.658,0,0,0-2.542-1.43A3.726,3.726,0,0,0,74.4,14.512Z" fill="#fff"/>
    <path id="Path_6" data-name="Path 6" d="M11.566,12.962V10.1h9.793a9.359,9.359,0,0,1,.145,1.729,9.377,9.377,0,0,1-2.517,6.7,9.8,9.8,0,0,1-7.418,2.94A10.71,10.71,0,0,1,.779,10.984,10.71,10.71,0,0,1,11.57.5a10.211,10.211,0,0,1,7.288,2.888L16.807,5.412a7.464,7.464,0,0,0-5.241-2.045,7.618,7.618,0,1,0,0,15.236,7.166,7.166,0,0,0,5.37-2.1,5.9,5.9,0,0,0,1.575-3.546Z" fill="#fff"/>
  </g>
</svg>
