<svg xmlns="http://www.w3.org/2000/svg" width="90" height="28.01" viewBox="0 0 90 28.01">
  <g id="hubspot" transform="translate(-0.779 -0.005)">
    <path id="Path_1" data-name="Path 1" d="M10.526,4.641v7.9H3.917v-7.9H.779V23.494H3.917V15.853h6.609v7.642h3.138V4.641Z" fill="#fff"/>
    <path id="Path_2" data-name="Path 2" d="M23.7,17.4a3,3,0,0,1-.76,2.014,2.436,2.436,0,0,1-3.671,0,3,3,0,0,1-.76-2.014V9.325H15.537V17.4a6.425,6.425,0,0,0,1.63,4.32,5.224,5.224,0,0,0,7.872,0,6.425,6.425,0,0,0,1.63-4.32V9.325H23.7Z" fill="#fff"/>
    <path id="Path_3" data-name="Path 3" d="M45.756,10.156a1.923,1.923,0,0,1,2.091-2.18A4.346,4.346,0,0,1,50.653,9.6L52.6,7.084a5.958,5.958,0,0,0-4.563-2.443,5.222,5.222,0,0,0-5.563,5.516c0,6.383,7.109,4.358,7.109,7.93a2.139,2.139,0,0,1-2.091,2.075c-1.76,0-2.331-.945-3.139-1.944l-2.163,2.469A6.207,6.207,0,0,0,47.326,23.5a5.266,5.266,0,0,0,5.534-5.384c0-7.087-7.108-4.885-7.108-7.957" fill="#fff"/>
    <path id="Path_4" data-name="Path 4" d="M89.732,20.483c-1.759,0-2.258-.835-2.258-2.114V12.708h2.733V9.839H87.474V6.055L84.456,7.541V19.072a4.074,4.074,0,0,0,4.4,4.436,5.571,5.571,0,0,0,1.19-.1l.736-2.975c-.332.025-.713.051-1.047.051" fill="#fff"/>
    <path id="Path_5" data-name="Path 5" d="M35.034,9.419a4.367,4.367,0,0,0-3.5,1.54V4.754H28.556v11.5c0,4.306,2.836,7.255,6.023,7.255a6.844,6.844,0,0,0,6.646-7.044c0-3.992-2.863-7.046-6.191-7.046Zm-.019,10.8a3.173,3.173,0,0,1-1.879-.626,3.66,3.66,0,0,1-1.246-1.666,4.049,4.049,0,0,1-.193-2.145,3.836,3.836,0,0,1,.926-1.9,3.3,3.3,0,0,1,1.732-1.016,3.1,3.1,0,0,1,1.954.211,3.471,3.471,0,0,1,1.518,1.367,3.974,3.974,0,0,1,.57,2.062,3.9,3.9,0,0,1-.991,2.625A3.237,3.237,0,0,1,35.015,20.219Z" fill="#fff"/>
    <path id="Path_6" data-name="Path 6" d="M67.4,16.295A6.835,6.835,0,0,0,60.754,9.25c-3.187,0-6.023,2.949-6.023,7.255V28.014h2.981V21.8a4.369,4.369,0,0,0,3.5,1.54c3.328,0,6.191-3.052,6.191-7.046Zm-2.823-.041a3.974,3.974,0,0,1-.57,2.062,3.471,3.471,0,0,1-1.518,1.367,3.1,3.1,0,0,1-1.954.211A3.3,3.3,0,0,1,58.8,18.879a3.837,3.837,0,0,1-.926-1.9,4.05,4.05,0,0,1,.193-2.145,3.66,3.66,0,0,1,1.246-1.666,3.172,3.172,0,0,1,1.879-.626,3.237,3.237,0,0,1,2.391,1.087A3.9,3.9,0,0,1,64.577,16.254Z" fill="#fff"/>
    <path id="Path_7" data-name="Path 7" d="M77.03,9.092V5.805A2.388,2.388,0,0,0,78,4.876a2.713,2.713,0,0,0,.364-1.352V3.448a2.661,2.661,0,0,0-.675-1.79A2.207,2.207,0,0,0,76.054.917h-.069a2.207,2.207,0,0,0-1.631.741,2.662,2.662,0,0,0-.675,1.79v.076a2.714,2.714,0,0,0,.364,1.352,2.388,2.388,0,0,0,.966.929V9.092a6.263,6.263,0,0,0-3.105,1.5L63.691,3.571a3,3,0,0,0-.343-2.3A2.668,2.668,0,0,0,62.183.223a2.384,2.384,0,0,0-1.5-.165,2.535,2.535,0,0,0-1.331.778A2.946,2.946,0,0,0,58.638,2.3a3.11,3.11,0,0,0,.146,1.648,2.812,2.812,0,0,0,.955,1.281,2.438,2.438,0,0,0,1.443.483,2.4,2.4,0,0,0,1.279-.381l8.088,6.906a7.774,7.774,0,0,0,.1,8.1l-2.46,2.7a1.942,1.942,0,0,0-.615-.11,2,2,0,0,0-1.185.4,2.309,2.309,0,0,0-.785,1.051,2.556,2.556,0,0,0-.121,1.353,2.421,2.421,0,0,0,.584,1.2,2.083,2.083,0,0,0,1.092.641,1.959,1.959,0,0,0,1.233-.133,2.191,2.191,0,0,0,.958-.862,2.459,2.459,0,0,0,.26-1.975l2.434-2.671a6.307,6.307,0,0,0,2.7,1.351,6,6,0,0,0,2.964-.091,6.389,6.389,0,0,0,2.625-1.513,7.207,7.207,0,0,0,1.75-2.627,7.825,7.825,0,0,0,.517-3.2,7.733,7.733,0,0,0-.821-3.127A7.01,7.01,0,0,0,79.785,10.3,6.241,6.241,0,0,0,77.03,9.092ZM76.021,19.9a3.158,3.158,0,0,1-1.869-.624,3.643,3.643,0,0,1-1.239-1.659,4.031,4.031,0,0,1-.191-2.134,3.819,3.819,0,0,1,.922-1.891,3.286,3.286,0,0,1,1.723-1.011,3.089,3.089,0,0,1,1.945.21,3.455,3.455,0,0,1,1.511,1.36,3.956,3.956,0,0,1,.568,2.052,3.886,3.886,0,0,1-.986,2.613A3.223,3.223,0,0,1,76.025,19.9" fill="#fff"/>
  </g>
</svg>
