<svg xmlns="http://www.w3.org/2000/svg" width="121.979" height="26" viewBox="0 0 121.979 26">
  <g id="microsoft" transform="translate(-0.051 -0.009)">
    <path id="Path_3" data-name="Path 3" d="M43.114,14.985l-.727,2.056h-.061a14.571,14.571,0,0,0-.707-2.015l-3.9-9.775H33.9V20.83h2.525V11.216c0-.6,0-1.29-.02-2.136-.02-.423-.061-.746-.081-.988h.061a9.387,9.387,0,0,0,.364,1.33l4.686,11.367h1.778L47.861,9.321a12.186,12.186,0,0,0,.3-1.229h.061c-.061,1.149-.1,2.177-.121,2.8v9.876h2.686V5.209H47.113ZM53.334,9.6H55.96V20.769H53.334Zm1.333-4.716a1.575,1.575,0,0,0-1.111.443,1.484,1.484,0,0,0,0,2.157,1.559,1.559,0,0,0,1.111.423,1.613,1.613,0,0,0,1.111-.423,1.416,1.416,0,0,0,.465-1.068,1.492,1.492,0,0,0-.465-1.088A1.475,1.475,0,0,0,54.668,4.887ZM65.272,9.5A7.34,7.34,0,0,0,63.8,9.341a6.348,6.348,0,0,0-3.191.786,5.269,5.269,0,0,0-2.1,2.157,6.842,6.842,0,0,0-.727,3.225,5.971,5.971,0,0,0,.707,2.882,4.836,4.836,0,0,0,1.979,2,5.837,5.837,0,0,0,2.888.705,6.36,6.36,0,0,0,3.171-.746l.02-.02V17.907l-.1.081a4.52,4.52,0,0,1-1.272.665,3.9,3.9,0,0,1-1.252.242,3.1,3.1,0,0,1-2.464-.967,3.712,3.712,0,0,1-.909-2.64,3.805,3.805,0,0,1,.929-2.721,3.246,3.246,0,0,1,2.464-1.008,4.3,4.3,0,0,1,2.5.847l.1.081V9.926l-.02-.02A6.1,6.1,0,0,0,65.272,9.5Zm8.665-.081a2.775,2.775,0,0,0-1.778.625,3.76,3.76,0,0,0-1.01,1.512h-.02V9.6H68.5V20.769H71.13v-5.7a3.84,3.84,0,0,1,.646-2.358,2.026,2.026,0,0,1,1.7-.907,6.475,6.475,0,0,1,.788.1,2.074,2.074,0,0,1,.626.262l.1.081V9.623l-.061-.02A2,2,0,0,0,73.937,9.422Zm7.15-.06a5.8,5.8,0,0,0-4.343,1.612,6,6,0,0,0-1.555,4.394,5.738,5.738,0,0,0,1.535,4.172,6.317,6.317,0,0,0,8.362-.1,5.975,5.975,0,0,0,1.555-4.333,5.824,5.824,0,0,0-1.475-4.212A5.322,5.322,0,0,0,81.087,9.361Zm2.1,8.586a2.65,2.65,0,0,1-2.2.927,2.761,2.761,0,0,1-2.262-.967,3.975,3.975,0,0,1-.808-2.681,4.225,4.225,0,0,1,.808-2.741,2.78,2.78,0,0,1,2.242-.967,2.689,2.689,0,0,1,2.181.927,4.128,4.128,0,0,1,.808,2.721A4.655,4.655,0,0,1,83.188,17.947ZM92.5,14.239a6.294,6.294,0,0,1-1.6-.826,1.143,1.143,0,0,1-.3-.847.936.936,0,0,1,.424-.806,1.949,1.949,0,0,1,1.151-.3,5.24,5.24,0,0,1,1.353.2A3.485,3.485,0,0,1,94.7,12.2l.1.081V9.825l-.061-.02a7.3,7.3,0,0,0-1.192-.343,8.114,8.114,0,0,0-1.293-.121,4.687,4.687,0,0,0-3.09.967,2.977,2.977,0,0,0-1.192,2.459,3.194,3.194,0,0,0,.263,1.371,3.054,3.054,0,0,0,.808,1.048,7.04,7.04,0,0,0,1.616.907c.606.262,1.071.464,1.353.625a2.742,2.742,0,0,1,.606.484,1.144,1.144,0,0,1,.162.625c0,.746-.566,1.109-1.717,1.109a4.544,4.544,0,0,1-1.454-.262,5.623,5.623,0,0,1-1.474-.746l-.1-.081v2.56l.061.02a7.844,7.844,0,0,0,1.414.444,9.043,9.043,0,0,0,1.515.181,4.926,4.926,0,0,0,3.252-.967,3.084,3.084,0,0,0,1.232-2.539,2.822,2.822,0,0,0-.646-1.915A8.193,8.193,0,0,0,92.5,14.239Zm9.937-4.877a5.8,5.8,0,0,0-4.342,1.612,6.081,6.081,0,0,0-1.555,4.394,5.738,5.738,0,0,0,1.535,4.172,6.318,6.318,0,0,0,8.362-.1,5.977,5.977,0,0,0,1.555-4.333,5.828,5.828,0,0,0-1.474-4.212A5.325,5.325,0,0,0,102.437,9.361Zm2.081,8.586a2.65,2.65,0,0,1-2.2.927,2.735,2.735,0,0,1-2.262-.967,3.975,3.975,0,0,1-.808-2.681,4.225,4.225,0,0,1,.808-2.741,2.78,2.78,0,0,1,2.242-.967,2.715,2.715,0,0,1,2.181.927,4.123,4.123,0,0,1,.808,2.721A4.39,4.39,0,0,1,104.518,17.947ZM122.03,11.76V9.6h-2.646V6.3l-.081.02-2.5.746-.061.02V9.6h-3.959V8.192a2.206,2.206,0,0,1,.445-1.471,1.568,1.568,0,0,1,1.232-.484,2.952,2.952,0,0,1,1.171.262l.1.06V4.282l-.06-.02a5.063,5.063,0,0,0-3.576.282,3.5,3.5,0,0,0-1.434,1.431,4.121,4.121,0,0,0-.525,2.076V9.6h-1.838V11.74h1.838v9.03h2.646V11.76h3.959V17.5c0,2.358,1.111,3.547,3.333,3.547a6.945,6.945,0,0,0,1.111-.121,3.642,3.642,0,0,0,.828-.262l.02-.02V18.492l-.1.081a1.7,1.7,0,0,1-.545.242,1.853,1.853,0,0,1-.525.081,1.4,1.4,0,0,1-1.152-.423,2.182,2.182,0,0,1-.363-1.431V11.76Z" fill="#fff"/>
    <path id="Path_4" data-name="Path 4" d="M.051.009H12.433V12.364H.051Z" fill="#fff"/>
    <path id="Path_5" data-name="Path 5" d="M13.726.009H26.107V12.364H13.726Z" fill="#fff"/>
    <path id="Path_6" data-name="Path 6" d="M.051,13.654H12.433V26.01H.051Z" fill="#fff"/>
    <path id="Path_7" data-name="Path 7" d="M13.726,13.654H26.107V26.01H13.726Z" fill="#fff"/>
  </g>
</svg>
