<svg xmlns="http://www.w3.org/2000/svg" width="111" height="26" viewBox="0 0 111 26">
  <g id="walmart" transform="translate(-0.03 -0.009)">
    <path id="Path_1" data-name="Path 1" d="M39.532,9.257v1.473h.045a3.676,3.676,0,0,1,3.361-1.718,3.31,3.31,0,0,1,3.181,1.94h.045A4.717,4.717,0,0,1,47.627,9.6,4.377,4.377,0,0,1,49.9,9.01c2.055,0,3.874,1.337,3.874,4.707V20.11H50.646V14.163c0-1.708-.617-2.7-1.9-2.7a1.968,1.968,0,0,0-1.882,1.324,2.813,2.813,0,0,0-.132.88v6.442H43.6V13.922c0-1.451-.592-2.458-1.857-2.458a2.1,2.1,0,0,0-1.906,1.392,2.4,2.4,0,0,0-.146.887V20.11H36.555V9.257Zm30.416,0V11.3h.087a3.376,3.376,0,0,1,3.14-2.292,3.322,3.322,0,0,1,.71.068v2.843a6.243,6.243,0,0,0-.929-.078,2.4,2.4,0,0,0-2.544,1.907,3.8,3.8,0,0,0-.069.8v5.558H67.127V9.257Zm8.3-3.6V9.078h2.717v2.764H78.251V15.92c0,1.32.357,1.959,1.417,1.959a4.966,4.966,0,0,0,1.185-.134l.042,2.292a7.831,7.831,0,0,1-2.256.313,3.578,3.578,0,0,1-2.54-.906,4.283,4.283,0,0,1-.922-3.126V5.662ZM34.372,20.11H31.253V5.662h3.119Zm-8.317-3.876a1.927,1.927,0,0,1-.076.587,2.182,2.182,0,0,1-2.1,1.389,1.385,1.385,0,0,1-1.549-1.434c0-1.49,1.747-1.9,3.732-1.894v1.353Zm3.115-2.6c0-2.461-1.116-4.622-4.89-4.622a9.38,9.38,0,0,0-4.314.968l.613,1.976a6.6,6.6,0,0,1,3.147-.831c1.916,0,2.228,1.02,2.228,1.676v.156c-4.176-.007-6.813,1.353-6.813,4.124a3.38,3.38,0,0,0,3.677,3.276,4.3,4.3,0,0,0,3.358-1.4h.069s.478,1.875,3.105,1.157a14.887,14.887,0,0,1-.184-2.615V13.635ZM3.475,5.662C3.8,7.191,4.712,11.63,4.712,11.63c.385,1.826.738,3.739,1,5.252h.049c.26-1.607.669-3.13,1.105-5.014L8.413,5.662h3.413l1.442,6.367c.378,1.77.679,3.136.918,4.782h.045c.26-1.663.6-3.084.97-4.9l1.386-6.246h3.275L15.8,20.11c-2.585.531-3.576-.447-3.93-2S10.828,13.6,10.828,13.6A40.239,40.239,0,0,1,10,9.176H9.952a44.336,44.336,0,0,1-1,4.42l-1.7,6.517c-2.641.5-3.555-.238-4.061-2.23C2.754,16.178.03,5.665.03,5.665H3.475ZM61.929,16.233a1.927,1.927,0,0,1-.076.587,2.182,2.182,0,0,1-2.1,1.389A1.386,1.386,0,0,1,58.2,16.775c0-1.49,1.747-1.9,3.732-1.894v1.353Zm3.115-2.6c0-2.461-1.116-4.622-4.89-4.622a9.379,9.379,0,0,0-4.314.968l.613,1.976a6.6,6.6,0,0,1,3.146-.831c1.913,0,2.228,1.02,2.228,1.676v.156c-4.172-.007-6.809,1.353-6.809,4.124A3.382,3.382,0,0,0,58.7,20.357a4.288,4.288,0,0,0,3.354-1.4h.073s.478,1.875,3.1,1.157a14.887,14.887,0,0,1-.184-2.615Z" fill="#fff"/>
    <path id="Path_2" data-name="Path 2" d="M93.61,15.134a1.1,1.1,0,0,1-.041,1.385L87.9,20.437c-.591.337-1.475-.072-1.976-.926s-.415-1.814.176-2.151l6.28-2.88A1.123,1.123,0,0,1,93.61,15.134Zm7.465,0a1.137,1.137,0,0,1,1.233-.657l6.284,2.88c.59.337.677,1.294.176,2.151s-1.392,1.26-1.98.926l-5.671-3.918A1.1,1.1,0,0,1,101.075,15.134Zm-3.734,2.124a1.127,1.127,0,0,1,1.2.725l.611,6.8c0,.674-.8,1.226-1.8,1.226s-1.8-.552-1.8-1.226l.608-6.8A1.125,1.125,0,0,1,97.341,17.258ZM101.117,9.5l5.671-3.921c.588-.337,1.475.068,1.98.926s.414,1.814-.176,2.151l-6.284,2.883a1.135,1.135,0,0,1-1.233-.657A1.1,1.1,0,0,1,101.117,9.5Zm-8.74,2.039L86.1,8.659c-.587-.337-.677-1.294-.176-2.151S87.31,5.245,87.9,5.582L93.569,9.5a1.1,1.1,0,0,1,.041,1.382A1.134,1.134,0,0,1,92.377,11.542Zm3.772-3.506-.608-6.8c0-.674.8-1.225,1.8-1.225s1.8.551,1.8,1.225l-.611,6.8a1.345,1.345,0,0,1-2.387,0ZM110.3,20.41v-.17h.156a.081.081,0,0,1,.086.085.082.082,0,0,1-.086.085Zm-.127.31a.034.034,0,0,0,.034.034h.066a.037.037,0,0,0,.034-.034v-.194h.107l.087.2a.037.037,0,0,0,.031.024h.079a.033.033,0,0,0,.031-.048c-.031-.061-.062-.126-.093-.191a.188.188,0,0,0,.131-.191.206.206,0,0,0-.214-.2h-.259a.037.037,0,0,0-.034.034Zm-.28-.282a.508.508,0,1,1,.508.5A.505.505,0,0,1,109.894,20.437Zm-.121,0a.629.629,0,1,0,.629-.62A.624.624,0,0,0,109.773,20.437Z" fill="#fff"/>
  </g>
</svg>
