<svg xmlns="http://www.w3.org/2000/svg" width="69.413" height="10.854" viewBox="0 0 69.413 10.854">
  <g id="Stars" transform="translate(-0.294)">
    <path id="Path_1" data-name="Path 1" d="M6,0,7.347,4.146h4.359L8.18,6.708l1.347,4.146L6,8.292,2.473,10.854,3.82,6.708.294,4.146H4.653Z" fill="#fff"/>
    <path id="Path_2" data-name="Path 2" d="M20.5,0l1.459,4.146h4.723L22.861,6.708l1.459,4.146L20.5,8.292l-3.821,2.562,1.459-4.146L14.318,4.146h4.723Z" fill="#fff"/>
    <path id="Path_3" data-name="Path 3" d="M35,0l1.347,4.146h4.359L37.18,6.708l1.347,4.146L35,8.292l-3.527,2.562L32.82,6.708,29.294,4.146h4.359Z" fill="#fff"/>
    <path id="Path_4" data-name="Path 4" d="M49.5,0l1.459,4.146h4.723L51.861,6.708l1.459,4.146L49.5,8.292l-3.821,2.562,1.459-4.146L43.318,4.146h4.723Z" fill="#fff"/>
    <path id="Path_5" data-name="Path 5" d="M64,1.618,64.872,4.3l.112.345h3.184L65.886,6.3l-.294.214.112.345.872,2.682L64.294,7.887,64,7.674l-.294.214L61.424,9.545,62.3,6.863l.112-.345L62.114,6.3,59.833,4.646h3.184l.112-.345Z" fill="#ff9d00" stroke="#ff9d00" stroke-width="1"/>
  </g>
</svg>
